<?xml version="1.0" encoding="utf-8"?>
<!-- Generator: Adobe Illustrator 16.0.0, SVG Export Plug-In . SVG Version: 6.00 Build 0)  -->
<!DOCTYPE svg PUBLIC "-//W3C//DTD SVG 1.1//EN" "http://www.w3.org/Graphics/SVG/1.1/DTD/svg11.dtd">
<svg version="1.1" id="Capa_1" xmlns="http://www.w3.org/2000/svg" xmlns:xlink="http://www.w3.org/1999/xlink" x="0px" y="0px"
	 width="512px" height="512px" viewBox="0 0 512 512" enable-background="new 0 0 512 512" xml:space="preserve">
<path id="XMLID_339_" fill="#FFFFFF" d="M254.347,184.982c-38.236,0-69.343,31.107-69.343,69.343s31.106,69.343,69.343,69.343
	c38.236,0,69.344-31.107,69.344-69.343S292.582,184.982,254.347,184.982z M254.347,303.668c-27.208,0-49.342-22.135-49.342-49.343
	c0-27.207,22.135-49.342,49.342-49.342c27.208,0,49.343,22.135,49.343,49.342C303.689,281.533,281.555,303.668,254.347,303.668z"/>
<path id="XMLID_340_" fill="#FFFFFF" d="M272.691,226.828c-2.631,0-5.211,1.07-7.069,2.93c-1.86,1.86-2.931,4.44-2.931,7.07
	c0,2.63,1.069,5.21,2.931,7.07c1.858,1.86,4.438,2.93,7.069,2.93c2.63,0,5.21-1.07,7.07-2.93c1.859-1.86,2.93-4.44,2.93-7.07
	c0-2.63-1.068-5.21-2.93-7.07C277.9,227.898,275.321,226.828,272.691,226.828z"/>
<path id="XMLID_341_" fill="#FFFFFF" d="M231.629,236.56c-2.64,0-5.22,1.07-7.07,2.93c-1.87,1.87-2.939,4.44-2.939,7.081
	c0,2.63,1.069,5.2,2.939,7.07c1.851,1.86,4.431,2.93,7.07,2.93c2.63,0,5.2-1.07,7.07-2.93c1.859-1.87,2.93-4.45,2.93-7.07
	c0-2.63-1.07-5.21-2.93-7.081C236.83,237.63,234.26,236.56,231.629,236.56z"/>
<path id="XMLID_342_" fill="#FFFFFF" d="M260.591,267.261c-2.64,0-5.21,1.07-7.07,2.931c-1.87,1.859-2.93,4.439-2.93,7.07
	c0,2.63,1.06,5.21,2.93,7.07c1.86,1.859,4.431,2.93,7.07,2.93c2.63,0,5.2-1.07,7.07-2.93c1.858-1.86,2.93-4.44,2.93-7.07
	c0-2.631-1.069-5.211-2.93-7.07C265.791,268.33,263.221,267.261,260.591,267.261z"/>
<path id="XMLID_792_" fill="#FFFFFF" d="M406.236,276.191c-2.63,0-5.21,1.061-7.068,2.92c-1.861,1.87-2.932,4.45-2.932,7.08
	c0,2.631,1.07,5.211,2.932,7.07c1.858,1.86,4.438,2.931,7.068,2.931c2.631,0,5.211-1.07,7.07-2.931
	c1.86-1.859,2.931-4.439,2.931-7.07c0-2.63-1.069-5.21-2.931-7.08C411.447,277.252,408.867,276.191,406.236,276.191z"/>
<path id="XMLID_890_" fill="#FFFFFF" d="M425.197,316.883c0,2.63,1.07,5.21,2.932,7.07c1.858,1.86,4.43,2.931,7.069,2.931
	c2.63,0,5.21-1.07,7.07-2.931c1.859-1.859,2.93-4.43,2.93-7.07c0-2.63-1.069-5.21-2.93-7.07c-1.86-1.859-4.44-2.93-7.07-2.93
	c-2.631,0-5.211,1.07-7.069,2.93C426.268,311.673,425.197,314.253,425.197,316.883z"/>
<path id="XMLID_925_" fill="#FFFFFF" d="M372.545,199.932l18.667-18.667c6.692-6.693,6.692-17.583,0-24.275l-18.667-18.668
	c-6.693-6.692-17.584-6.693-24.276,0l-18.667,18.667c-3.243,3.242-5.028,7.553-5.028,12.139c0,4.586,1.785,8.896,5.027,12.138
	l18.668,18.668c3.241,3.242,7.554,5.027,12.138,5.027C364.992,204.959,369.303,203.174,372.545,199.932z M345.749,169.127
	l14.657-14.659l14.658,14.659l-14.658,14.659L345.749,169.127z"/>
<path id="XMLID_938_" fill="#FFFFFF" d="M441.025,398.254h-25.762c-9.369,0-16.991,7.623-16.991,16.992v25.761
	c0,9.37,7.622,16.992,16.991,16.992h25.762c9.369,0,16.991-7.622,16.991-16.992v-25.761
	C458.017,405.877,450.395,398.254,441.025,398.254z M438.016,437.997h-19.742v-19.743h19.742V437.997z"/>
<path id="XMLID_940_" fill="#FFFFFF" d="M334.574,324.554c-2.631,0-5.211,1.069-7.07,2.93s-2.931,4.431-2.931,7.07
	c0,2.63,1.07,5.21,2.931,7.07c1.859,1.86,4.439,2.93,7.07,2.93s5.21-1.069,7.07-2.93c1.859-1.86,2.93-4.44,2.93-7.07
	s-1.069-5.21-2.93-7.07C339.784,325.622,337.205,324.554,334.574,324.554z"/>
<path id="XMLID_941_" fill="#FFFFFF" d="M201.688,343.294c-2.63,0-5.21,1.061-7.069,2.931c-1.86,1.859-2.931,4.439-2.931,7.07
	c0,2.63,1.07,5.21,2.931,7.07c1.859,1.859,4.439,2.93,7.069,2.93c2.63,0,5.21-1.07,7.07-2.93c1.86-1.86,2.93-4.44,2.93-7.07
	c0-2.631-1.069-5.211-2.93-7.07C206.898,344.354,204.318,343.294,201.688,343.294z"/>
<path id="XMLID_957_" fill="#FFFFFF" d="M82.442,237.376c-5.088-2.153-10.956,0.228-13.105,5.314
	c-17.001,40.195-25.62,82.882-25.62,126.878c0,5.523,4.478,10,10,10c5.522,0,10-4.477,10-10c0-41.304,8.088-81.371,24.04-119.087
	C89.908,245.395,87.53,239.528,82.442,237.376z"/>
<path id="XMLID_1033_" fill="#FFFFFF" d="M255.892,74.555c-2.15-5.086-8.02-7.467-13.105-5.314
	c-38.813,16.417-73.669,39.917-103.603,69.848c-3.905,3.905-3.905,10.237,0,14.143c1.953,1.953,4.512,2.929,7.071,2.929
	s5.118-0.977,7.071-2.929c28.103-28.102,60.822-50.162,97.25-65.57C255.664,85.51,258.043,79.642,255.892,74.555z"/>
<path id="XMLID_1244_" fill="#FFFFFF" d="M313.693,398.995c-2.631,0-5.211,1.07-7.07,2.931c-1.859,1.87-2.931,4.439-2.931,7.07
	c0,2.64,1.07,5.21,2.931,7.08c1.859,1.86,4.439,2.93,7.07,2.93c2.63,0,5.21-1.069,7.07-2.93c1.869-1.87,2.93-4.44,2.93-7.08
	c0-2.631-1.061-5.2-2.93-7.07C318.903,400.066,316.323,398.995,313.693,398.995z"/>
<path id="XMLID_1543_" fill="#FFFFFF" d="M272.631,408.736c-2.63,0-5.21,1.061-7.07,2.931c-1.859,1.86-2.93,4.44-2.93,7.07
	s1.07,5.21,2.93,7.07c1.86,1.86,4.44,2.93,7.07,2.93c2.631,0,5.211-1.069,7.07-2.93c1.859-1.87,2.931-4.44,2.931-7.07
	s-1.07-5.21-2.931-7.07C277.842,409.797,275.262,408.736,272.631,408.736z"/>
<path id="XMLID_1990_" fill="#FFFFFF" d="M511.389,485.121l-33.501-148.746c-0.01-0.044-0.021-0.088-0.03-0.132l-22.862-101.514
	c-0.008-0.031-0.015-0.061-0.021-0.092L419.961,79.184c3.369-7.164,5.264-15.153,5.264-23.581C425.225,24.944,400.281,0,369.621,0
	c-49.863,0-98.268,9.778-143.864,29.064c-44.012,18.614-83.526,45.252-117.45,79.174c-33.924,33.924-60.562,73.439-79.176,117.451
	c-19.286,45.597-29.064,94-29.064,143.864c0,30.661,24.943,55.604,55.604,55.604c8.493,0,16.543-1.921,23.751-5.34l70.583,15.93
	v43.688c0,17.957,14.608,32.565,32.565,32.565c17.957,0,32.565-14.608,32.565-32.565v-12.685c0-2.997,2.438-5.437,5.437-5.437
	c6.079,0,11.836-2.146,16.356-5.949l248.189,56.015c7.393,1.667,15.01-0.534,20.369-5.893
	C510.849,500.129,513.054,492.516,511.389,485.121L511.389,485.121z M456.975,334.554c-8.197,5.66-17.95,8.737-28.018,8.737
	c-27.209,0-49.344-22.135-49.344-49.342s22.135-49.343,49.344-49.343c2.659,0,5.301,0.218,7.902,0.636L456.975,334.554z
	 M99.409,403.824c6.747-8.592,11.021-19.205,11.743-30.772h13.379c14.045,0,25.473,11.427,25.473,25.473v16.72L99.409,403.824z
	 M246.008,426.496c0-27.208,22.134-49.343,49.343-49.343c27.207,0,49.342,22.135,49.342,49.343c0,11.113-3.678,21.695-10.432,30.333
	l-87.087-19.655C246.405,433.687,246.008,430.113,246.008,426.496z M491.349,491.341c-0.352,0.351-0.951,0.729-1.827,0.528
	l-134.316-30.314c6.187-10.529,9.488-22.559,9.488-35.06c0-38.236-31.105-69.344-69.342-69.344s-69.344,31.107-69.344,69.344
	c0,3.506,0.273,6.981,0.79,10.413c-0.661,0.595-1.252,1.276-1.743,2.047c-1.021,1.479-2.687,2.358-4.482,2.358
	c-14.026,0-25.438,11.41-25.438,25.437v12.685c0,6.929-5.637,12.564-12.564,12.564c-6.927,0-12.564-5.636-12.564-12.564v-80.91
	c0-25.074-20.398-45.474-45.474-45.474h-12.729c3.021-47.914,19.181-93.58,47.207-132.955c3.202-4.5,2.15-10.744-2.349-13.947
	c-4.5-3.203-10.743-2.151-13.947,2.348c-33.651,47.279-51.44,102.971-51.44,161.055c0,19.632-15.972,35.604-35.604,35.604
	s-35.604-15.972-35.604-35.604c0-47.173,9.248-92.954,27.484-136.072c17.606-41.627,42.806-79.006,74.898-111.099
	c32.092-32.092,69.471-57.291,111.099-74.897c43.117-18.237,88.899-27.484,136.072-27.484c19.632,0,35.604,15.972,35.604,35.604
	s-15.972,35.604-35.604,35.604c-58.121,0-113.843,17.809-161.139,51.5c-4.498,3.205-5.548,9.449-2.343,13.947
	c3.204,4.499,9.448,5.547,13.946,2.343c43.889-31.264,95.598-47.789,149.534-47.79c12.964,0,24.896-4.472,34.362-11.938
	l28.248,125.421c-1.089-0.051-2.18-0.086-3.273-0.086c-38.236,0-69.344,31.107-69.344,69.344c0,38.235,31.107,69.343,69.344,69.343
	c11.481,0,22.678-2.846,32.65-8.17l30.269,134.393C492.074,490.392,491.698,490.992,491.349,491.341L491.349,491.341z"/>
<path id="XMLID_1994_" fill="#FFFFFF" d="M189.938,179.917c0-2.63-1.069-5.21-2.93-7.07c-1.86-1.86-4.44-2.93-7.07-2.93
	c-2.63,0-5.21,1.07-7.069,2.93c-1.86,1.86-2.931,4.44-2.931,7.07c0,2.63,1.07,5.21,2.931,7.07c1.859,1.86,4.439,2.93,7.069,2.93
	c2.63,0,5.2-1.07,7.07-2.93C188.869,185.127,189.938,182.547,189.938,179.917z"/>
</svg>
